<svg width="831" height="101" viewBox="0 0 831 101" fill="none" xmlns="http://www.w3.org/2000/svg">
<path d="M0 0H759.5L831 101H0V0Z" fill="#0046FE"/>
<path d="M133.096 55.52V50.48H116.248V46.16H128.68V41.12H104.248V35.072H128.296V30.032H97.96V46.16H109.912V50.48H93.112V55.52H133.096ZM129.016 66.32H104.152V58.448H97.816V71.36H129.016V66.32ZM171.444 72.224V27.872H165.108V72.224H171.444ZM147.684 30.992C141.012 30.992 136.068 37.04 136.068 46.736C136.068 56.48 141.012 62.576 147.684 62.576C154.356 62.576 159.3 56.48 159.3 46.736C159.3 37.04 154.356 30.992 147.684 30.992ZM147.684 36.704C150.948 36.704 153.204 40.16 153.204 46.736C153.204 53.312 150.948 56.816 147.684 56.816C144.42 56.816 142.164 53.312 142.164 46.736C142.164 40.16 144.42 36.704 147.684 36.704ZM225.708 42.32V37.136H219.852V27.92H213.516V49.856H219.852V42.32H225.708ZM186.348 49.136H207.42V30.608H186.348V49.136ZM192.54 35.552H201.18V44.192H192.54V35.552ZM223.404 54.08H215.484V50.96H209.34V54.08H201.276V58.592H223.404V54.08ZM195.084 65.84V53.648H188.94V71.024H191.388C195.756 71.024 199.164 70.832 202.812 69.536L201.948 64.544C199.692 65.264 197.436 65.648 195.084 65.84ZM212.316 59.696C207.276 59.696 203.772 62.096 203.772 65.936C203.772 69.776 207.276 72.176 212.316 72.176C217.356 72.176 220.86 69.776 220.86 65.936C220.86 62.096 217.356 59.696 212.316 59.696ZM212.316 67.904C210.636 67.904 209.388 67.232 209.388 65.936C209.388 64.592 210.636 63.968 212.316 63.968C214.044 63.968 215.244 64.592 215.244 65.936C215.244 67.232 214.044 67.904 212.316 67.904ZM246.776 47.456C256.424 47.456 262.808 43.952 262.808 38.336C262.808 32.72 256.424 29.216 246.776 29.216C237.176 29.216 230.792 32.72 230.792 38.336C230.792 43.952 237.176 47.456 246.776 47.456ZM246.776 34.208C252.776 34.208 256.28 35.648 256.28 38.336C256.28 41.072 252.776 42.416 246.776 42.416C240.776 42.416 237.32 41.072 237.32 38.336C237.32 35.648 240.776 34.208 246.776 34.208ZM266.744 55.52V50.48H226.808V55.52H266.744ZM262.28 66.32H237.992V58.496H231.656V71.36H262.28V66.32ZM313.999 54.128V27.92H307.663V38.624H300.655C299.503 33.68 294.799 30.224 289.231 30.224C282.703 30.224 277.615 34.832 277.615 41.168C277.615 47.552 282.703 52.16 289.231 52.16C294.895 52.16 299.503 48.752 300.655 43.712H307.663V54.128H313.999ZM289.231 46.736C285.967 46.736 283.663 44.672 283.663 41.168C283.663 37.664 285.967 35.648 289.231 35.648C292.495 35.648 294.895 37.664 294.895 41.168C294.895 44.672 292.495 46.736 289.231 46.736ZM313.999 56.096H283.903V61.088H307.663V72.176H313.999V56.096ZM359.451 45.872V40.688H353.595V27.92H347.259V60.176H353.595V45.872H359.451ZM320.091 52.88H341.163V31.568H320.091V52.88ZM326.283 36.56H334.923V47.888H326.283V36.56ZM355.179 66.32H331.419V57.008H325.083V71.36H355.179V66.32ZM401.207 43.28V38.096H395.351V27.92H389.015V54.176H395.351V43.28H401.207ZM383.879 52.88L386.903 47.984C379.943 45.92 376.967 40.976 376.823 35.936H385.463V30.848H361.559V35.936H370.343C370.199 41.504 367.079 47.024 359.927 49.472L363.095 54.416C368.279 52.736 371.783 49.28 373.751 44.864C375.671 48.512 379.031 51.392 383.879 52.88ZM380.903 54.944C371.639 54.944 365.927 58.16 365.927 63.584C365.927 68.96 371.639 72.128 380.903 72.128C390.119 72.128 395.831 68.96 395.831 63.584C395.831 58.16 390.119 54.944 380.903 54.944ZM380.903 67.28C375.095 67.28 372.215 66.032 372.215 63.584C372.215 61.088 375.095 59.84 380.903 59.84C386.519 59.84 389.543 61.04 389.543 63.584C389.543 66.08 386.519 67.28 380.903 67.28ZM436.916 50H443.348V44.768H436.916V27.92H430.58V72.128H436.916V50ZM418.532 39.824V37.376H427.316V32.144H403.028V37.376H412.196V39.824C412.196 47.12 408.596 55.472 401.348 58.784L404.9 63.824C409.94 61.376 413.492 56.624 415.46 50.816C417.428 56.048 420.788 60.464 425.78 62.72L429.284 57.728C422.036 54.416 418.532 46.544 418.532 39.824ZM478.672 50H484.864V44.768H478.672V27.872H472.336V72.032H478.672V50ZM466.912 32.432H446.08V37.568H460.528C459.376 47.408 453.952 54.32 443.632 59.648L447.184 64.496C461.92 57.056 466.912 45.728 466.912 32.432ZM531.159 72.224V27.92H524.823V72.224H531.159ZM511.959 58.112V50.912H520.407V45.824H503.655V36.896H520.119V31.856H497.319V50.912H505.623V58.256C501.735 58.4 497.943 58.352 494.487 58.352L495.255 63.536C503.463 63.536 513.351 63.488 522.807 61.952L522.423 57.344C518.967 57.68 515.607 57.92 511.959 58.112ZM559.619 43.328H566.675V52.64H573.011V27.92H566.675V38.192H559.571C558.419 33.392 553.859 30.176 548.243 30.176C541.667 30.176 536.675 34.592 536.675 40.784C536.675 46.976 541.667 51.392 548.243 51.392C553.955 51.392 558.467 48.128 559.619 43.328ZM548.243 35.408C551.507 35.408 553.811 37.472 553.811 40.784C553.811 44.24 551.507 46.112 548.243 46.112C544.979 46.112 542.675 44.24 542.675 40.784C542.675 37.472 544.979 35.408 548.243 35.408ZM568.883 56V54.368H562.643V56C562.643 59.312 561.251 63.152 557.603 65.84C554.099 63.344 552.659 59.648 552.659 56V54.368H546.515V56C546.515 60.368 544.115 64.88 538.355 66.944L541.475 71.504C545.507 70.112 548.099 67.424 549.635 64.112C551.123 67.568 553.571 70.448 557.651 71.984C561.683 70.4 564.131 67.424 565.619 63.968C567.155 67.424 569.747 70.112 573.971 71.504L577.139 66.944C571.235 65.024 568.883 60.752 568.883 56ZM597.776 30.128C588.512 30.128 581.312 35.216 581.312 42.944C581.312 50.624 588.512 55.712 597.776 55.712C607.088 55.712 614.288 50.624 614.288 42.944C614.288 35.216 607.088 30.128 597.776 30.128ZM597.776 35.312C603.776 35.312 608.096 38.144 608.096 42.944C608.096 47.648 603.776 50.528 597.776 50.528C591.824 50.528 587.504 47.648 587.504 42.944C587.504 38.144 591.824 35.312 597.776 35.312ZM617.84 66.848V61.664H577.808V66.848H617.84ZM656.476 72.08V27.872H650.14V72.08H656.476ZM628.156 55.808V32.096H621.868V61.232H625.804C632.572 61.232 639.868 60.752 647.404 59.168L646.732 53.888C640.156 55.184 633.964 55.664 628.156 55.808ZM696.456 50.432H702.168V45.2H696.456V27.872H690.072V72.08H696.456V50.432ZM674.328 32.432H662.376V37.52H668.328C667.944 46.4 666.312 52.736 660.408 59.264L665.352 62.864C673.176 54.128 674.328 44.624 674.328 32.432ZM686.52 32.432H675.816V37.52H680.568C680.184 47.36 678.696 54.704 672.792 62.144L677.784 65.648C685.464 56.048 686.52 45.248 686.52 32.432ZM743.109 66.992V61.856H734.229V51.056C737.541 48.992 739.557 45.824 739.557 41.984C739.557 34.736 732.597 30.08 723.045 30.08C713.589 30.08 706.581 34.736 706.581 41.984C706.533 45.824 708.453 48.992 711.909 51.056V61.856H703.077V66.992H743.109ZM723.045 35.072C729.189 35.072 733.317 37.568 733.317 41.984C733.317 46.4 729.189 48.896 723.045 48.896C716.901 48.896 712.821 46.4 712.821 41.984C712.821 37.568 716.901 35.072 723.045 35.072ZM727.941 61.856H718.197V53.408C719.733 53.696 721.365 53.84 723.045 53.84C724.773 53.84 726.405 53.696 727.941 53.408V61.856ZM745.889 68.672H752.897V61.856H745.889V68.672Z" fill="white"/>
<path d="M26.1269 36.2459C25.5131 35.5939 25.3233 34.4957 25.3233 33.6126C25.3233 32.1697 23.9692 31 22.299 31C20.6287 31 19.2747 32.1697 19.2747 33.6126C19.2747 34.4957 19.0848 35.5939 18.471 36.2459C17.781 36.9788 17.3675 37.9136 17.3675 38.9319C17.3675 39.4016 17.4554 39.8535 17.6179 40.276C17.9598 41.1651 17.7993 42.3519 17.0741 42.9887C15.7727 44.1314 14.9698 45.6991 14.9698 47.4288C14.9698 48.4161 15.2314 49.3506 15.698 50.1835C16.1355 50.9643 15.9896 52.0218 15.2843 52.5887C13.2638 54.2131 12 56.5306 12 59.103C12 64.0167 16.611 68 22.299 68C27.9869 68 32.5979 64.0167 32.5979 59.103C32.5979 56.5306 31.3341 54.2131 29.3136 52.5887C28.6084 52.0218 28.4625 50.9643 28.8999 50.1835C29.3665 49.3506 29.6281 48.4161 29.6281 47.4288C29.6281 45.6991 28.8252 44.1314 27.5238 42.9887C26.7987 42.3519 26.6381 41.1651 26.98 40.276C27.1425 39.8535 27.2305 39.4016 27.2305 38.9319C27.2305 37.9136 26.8169 36.9788 26.1269 36.2459Z" fill="white"/>
<path d="M21.4146 62.2786L21.7094 60.6712C22.4426 60.6712 23.0813 60.652 23.6255 60.6137C24.1697 60.5678 24.6195 60.5028 24.9747 60.4186C25.3375 60.3267 25.6059 60.2081 25.7797 60.0626C25.9611 59.9172 26.0518 59.7411 26.0518 59.5345C26.0518 59.2589 26.0065 58.9298 25.9158 58.5471C25.8251 58.1567 25.7079 57.7625 25.5643 57.3645L27.0496 56.9282C27.1478 57.1884 27.2423 57.4755 27.333 57.7893C27.4237 58.0955 27.4955 58.4055 27.5484 58.7193C27.6089 59.0255 27.6392 59.3125 27.6392 59.5804C27.6392 60.055 27.5371 60.4645 27.333 60.8089C27.1289 61.1457 26.7888 61.4251 26.3126 61.6471C25.844 61.8614 25.209 62.0183 24.4078 62.1178C23.6066 62.225 22.6089 62.2786 21.4146 62.2786ZM21.4032 62.2786C20.5869 62.2786 19.8953 62.2135 19.3284 62.0834C18.769 61.9609 18.3117 61.7849 17.9565 61.5552C17.6088 61.318 17.3556 61.0424 17.1968 60.7286C17.0381 60.4147 16.9587 60.0703 16.9587 59.6952C16.9587 59.4503 16.9776 59.2053 17.0154 58.9604C17.0608 58.7078 17.1137 58.4629 17.1742 58.2256C17.2422 57.9883 17.3027 57.774 17.3556 57.5826L18.7728 57.9156C18.7426 58.0534 18.7086 58.2026 18.6708 58.3634C18.633 58.5241 18.6028 58.681 18.5801 58.8341C18.5574 58.9795 18.5461 59.1135 18.5461 59.236C18.5461 59.5192 18.6443 59.7718 18.8409 59.9937C19.0449 60.2081 19.3775 60.3765 19.8386 60.4989C20.2997 60.6137 20.9195 60.6712 21.698 60.6712L21.9248 61.9112L21.4032 62.2786ZM23.274 57.0315C23.0548 57.0315 22.8658 56.955 22.7071 56.8019C22.5559 56.6411 22.4804 56.4536 22.4804 56.2393C22.4804 56.0173 22.5559 55.8259 22.7071 55.6652C22.8658 55.5045 23.0548 55.4241 23.274 55.4241C23.4857 55.4241 23.6671 55.5045 23.8182 55.6652C23.9694 55.8259 24.045 56.0173 24.045 56.2393C24.045 56.4536 23.9694 56.6411 23.8182 56.8019C23.6671 56.955 23.4857 57.0315 23.274 57.0315ZM21.3125 57.02C21.0933 57.02 20.9044 56.9435 20.7456 56.7904C20.5945 56.6296 20.5189 56.4421 20.5189 56.2278C20.5189 56.0058 20.5945 55.8145 20.7456 55.6537C20.9044 55.493 21.0933 55.4126 21.3125 55.4126C21.5242 55.4126 21.7056 55.493 21.8568 55.6537C22.0079 55.8145 22.0835 56.0058 22.0835 56.2278C22.0835 56.4421 22.0079 56.6296 21.8568 56.7904C21.7056 56.9435 21.5242 57.02 21.3125 57.02Z" fill="white"/>
<path d="M25.7168 36.2459C25.1208 35.5939 24.9365 34.4957 24.9365 33.6126C24.9365 32.1697 23.6218 31 22 31C20.3782 31 19.0635 32.1697 19.0635 33.6126C19.0635 34.4957 18.8792 35.5939 18.2832 36.2459C17.6132 36.9788 17.2116 37.9136 17.2116 38.9319C17.2116 39.4016 17.2971 39.8535 17.4548 40.276C17.7868 41.1651 17.6309 42.3519 16.9268 42.9887C15.6632 44.1314 14.8836 45.6991 14.8836 47.4288C14.8836 48.4161 15.1376 49.3506 15.5907 50.1835C16.0154 50.9643 15.8738 52.0218 15.189 52.5887C13.2271 54.2131 12 56.5306 12 59.103C12 64.0167 16.4772 68 22 68C27.5228 68 32 64.0167 32 59.103C32 56.5306 30.7729 54.2131 28.811 52.5887C28.1262 52.0218 27.9846 50.9643 28.4093 50.1835C28.8624 49.3506 29.1164 48.4161 29.1164 47.4288C29.1164 45.6991 28.3368 44.1314 27.0732 42.9887C26.3691 42.3519 26.2132 41.1651 26.5452 40.276C26.7029 39.8535 26.7884 39.4016 26.7884 38.9319C26.7884 37.9136 26.3868 36.9788 25.7168 36.2459Z" fill="white"/>
<path d="M21.1412 62.2786L21.4274 60.6712C22.1393 60.6712 22.7595 60.652 23.2879 60.6137C23.8163 60.5678 24.253 60.5028 24.598 60.4186C24.9503 60.3267 25.2108 60.2081 25.3796 60.0626C25.5558 59.9172 25.6438 59.7411 25.6438 59.5345C25.6438 59.2589 25.5998 58.9298 25.5117 58.5471C25.4236 58.1567 25.3099 57.7625 25.1704 57.3645L26.6126 56.9282C26.708 57.1884 26.7998 57.4755 26.8878 57.7893C26.9759 58.0955 27.0456 58.4055 27.097 58.7193C27.1557 59.0255 27.1851 59.3125 27.1851 59.5804C27.1851 60.055 27.086 60.4645 26.8878 60.8089C26.6897 61.1457 26.3594 61.4251 25.897 61.6471C25.442 61.8614 24.8255 62.0183 24.0475 62.1178C23.2696 62.225 22.3008 62.2786 21.1412 62.2786ZM21.1302 62.2786C20.3375 62.2786 19.666 62.2135 19.1156 62.0834C18.5724 61.9609 18.1284 61.7849 17.7835 61.5552C17.4459 61.318 17.2 61.0424 17.0459 60.7286C16.8918 60.4147 16.8147 60.0703 16.8147 59.6952C16.8147 59.4503 16.833 59.2053 16.8697 58.9604C16.9138 58.7078 16.9652 58.4629 17.0239 58.2256C17.0899 57.9883 17.1486 57.774 17.2 57.5826L18.5761 57.9156C18.5468 58.0534 18.5137 58.2026 18.477 58.3634C18.4403 58.5241 18.411 58.681 18.389 58.8341C18.3669 58.9795 18.3559 59.1135 18.3559 59.236C18.3559 59.5192 18.4514 59.7718 18.6422 59.9937C18.8403 60.2081 19.1633 60.3765 19.611 60.4989C20.0586 60.6137 20.6605 60.6712 21.4164 60.6712L21.6366 61.9112L21.1302 62.2786ZM22.9466 57.0315C22.7338 57.0315 22.5503 56.955 22.3962 56.8019C22.2494 56.6411 22.176 56.4536 22.176 56.2393C22.176 56.0173 22.2494 55.8259 22.3962 55.6652C22.5503 55.5045 22.7338 55.4241 22.9466 55.4241C23.1521 55.4241 23.3283 55.5045 23.4751 55.6652C23.6219 55.8259 23.6953 56.0173 23.6953 56.2393C23.6953 56.4536 23.6219 56.6411 23.4751 56.8019C23.3283 56.955 23.1521 57.0315 22.9466 57.0315ZM21.0421 57.02C20.8293 57.02 20.6458 56.9435 20.4917 56.7904C20.3449 56.6296 20.2715 56.4421 20.2715 56.2278C20.2715 56.0058 20.3449 55.8145 20.4917 55.6537C20.6458 55.493 20.8293 55.4126 21.0421 55.4126C21.2476 55.4126 21.4238 55.493 21.5705 55.6537C21.7173 55.8145 21.7907 56.0058 21.7907 56.2278C21.7907 56.4421 21.7173 56.6296 21.5705 56.7904C21.4238 56.9435 21.2476 57.02 21.0421 57.02Z" fill="#0046FE"/>
</svg>
