<svg width="831" height="101" viewBox="0 0 831 101" fill="none" xmlns="http://www.w3.org/2000/svg">
<path d="M82.5 0H831V101H0L82.5 0Z" fill="#0046FE"/>
<path d="M183.781 30.7188C177.312 30.7188 172.578 36.7188 172.578 46.2344C172.578 55.7969 177.312 61.7969 183.781 61.7969C189.781 61.7969 194.281 56.6875 194.891 48.3438H202.109V71.2188H208.344V27.6719H202.109V43.3281H194.844C193.953 35.5 189.594 30.7188 183.781 30.7188ZM178.531 46.2344C178.531 39.8125 180.641 36.3906 183.781 36.3906C186.969 36.3906 189.078 39.8125 189.078 46.2344C189.078 52.7031 186.969 56.125 183.781 56.125C180.641 56.125 178.531 52.7031 178.531 46.2344ZM242.178 28.5156H236.459V47.5938C232.803 44.5938 231.912 39.9062 231.819 35.5938H234.912V30.5781H224.787V35.5938H226.522C226.475 38.7344 226.053 42.4375 224.272 45.4375C222.491 42.3906 222.069 38.6875 222.022 35.5938H223.756V30.5781H212.975V35.5938H216.725C216.631 40 215.647 45.0156 211.616 47.9688L214.803 52C217.053 50.4531 218.459 48.1094 219.35 45.4844C220.241 48.3438 221.787 50.9688 224.272 52.6562C226.803 50.9688 228.303 48.3906 229.194 45.5312C230.084 48.1562 231.537 50.4531 233.787 52L236.459 48.5781V52.75H242.178V43.0938H244.897V53.1719H250.709V27.7656H244.897V37.9844H242.178V28.5156ZM215.084 65.9219L218.084 70.4688C222.022 69.1094 224.647 66.5312 226.194 63.3438C227.6 66.625 230.131 69.3906 234.069 70.8906C238.006 69.3438 240.537 66.4375 241.944 63.1094C243.444 66.3906 246.116 69.0625 250.147 70.4688L253.194 65.9219C247.475 64 245.084 59.7812 245.084 55.6562V54.6719H238.897V55.6562C238.897 58.7969 237.444 62.4062 234.022 64.8906C230.553 62.5 229.194 58.8906 229.194 55.6562V54.6719H223.1V55.6562C223.1 59.7812 220.756 64 215.084 65.9219ZM292.653 49.1875H253.419V54.1562H292.653V49.1875ZM258.012 70.375H288.622V65.4062H264.247V57.3906H258.012V70.375ZM258.153 45.6719H288.341V40.7031H264.341V34.2812H287.966V29.3125H258.153V45.6719ZM326.103 31.8906H305.525V36.8594H319.869C319.728 38.875 319.4 40.7969 318.931 42.5781L303.275 43.5156L304.072 48.7656L316.962 47.5938C314.384 52.375 310.025 56.4062 302.9 59.9219L306.181 64.7969C322.494 56.6875 326.103 45.2969 326.103 31.8906ZM332.525 71.125H338.759V27.7188H332.525V71.125ZM377.328 27.6719H371.047V71.0781H377.328V49.4219H383.375V44.3125H377.328V27.6719ZM342.875 58.8906L346.391 63.6719C360.828 56.3594 365.797 45.2031 365.797 32.1719H345.266V37.2344H359.422C358.344 46.8438 352.953 53.7344 342.875 58.8906ZM414.669 31.8906H394.794V36.8594H408.434C408.247 38.9219 407.966 40.7969 407.497 42.625L392.45 43.5156L393.247 48.7188L405.575 47.6406C403.137 52.375 398.919 56.3594 392.169 59.875L395.591 64.6094C411.2 56.5 414.669 45.2969 414.669 31.8906ZM414.575 49.4219H422.637V71.1719H428.919V27.7656H422.637V44.3594H414.575V49.4219ZM469.644 27.7656H463.362V35.2656H457.222V40.2344H463.362V42.9531H457.222V47.0312C452.019 44.5 449.722 39.9531 449.722 35.4531V35.2188H458.066V30.2969H434.909V35.2188H443.347V35.4531C443.347 40.9375 440.347 46.4219 433.128 48.7656L436.269 53.6875C441.331 52.0469 444.753 48.6719 446.628 44.4531C448.503 48.2969 451.737 51.2969 456.472 52.8438L459.519 47.9688L459.237 47.875H463.362V52.8438H469.644V27.7656ZM435.519 66.0625L438.612 70.5625C442.503 69.1562 445.128 66.5781 446.628 63.3906C448.034 66.7188 450.566 69.5312 454.503 71.0312C458.441 69.4375 460.925 66.5312 462.378 63.1562C463.831 66.5312 466.456 69.1562 470.534 70.5625L473.628 66.0625C467.816 64.2344 465.566 59.9219 465.566 55.3281V54.25H459.378V55.3281C459.378 58.5625 457.972 62.4062 454.456 64.9844C451.034 62.5469 449.628 58.8438 449.628 55.3281V54.25H443.581V55.3281C443.581 59.6406 441.191 64.0469 435.519 66.0625ZM497.994 30.1562H474.884V35.125H483.416C483.087 39.5781 479.853 44.4062 473.244 46.4688L476.384 51.25C481.4 49.7031 484.822 46.4219 486.744 42.3438C488.525 45.7188 491.619 48.3906 496.072 49.7031L499.212 44.9688C493.072 43.2344 490.166 39.25 489.837 35.125H497.994V30.1562ZM477.837 70.4219H480.275C484.494 70.4219 487.916 70.1875 491.478 68.9219L490.587 64.0469C488.431 64.7969 486.228 65.125 483.884 65.2656V53.4062H477.837V70.4219ZM489.978 58.3281H511.634V53.8281H503.853V50.7812H497.806V53.8281H489.978V58.3281ZM492.416 65.2188C492.416 68.875 495.884 71.2188 500.806 71.2188C505.728 71.2188 509.197 68.875 509.197 65.2188C509.197 61.5625 505.728 59.2188 500.806 59.2188C495.884 59.2188 492.416 61.5625 492.416 65.2188ZM497.994 65.2188C497.994 63.9531 499.166 63.3906 500.806 63.3906C502.4 63.3906 503.619 63.9531 503.619 65.2188C503.619 66.4844 502.4 67.0469 500.806 67.0469C499.166 67.0469 497.994 66.4844 497.994 65.2188ZM501.931 49.4219H508.166V41.9688H513.931V36.8594H508.166V27.7656H501.931V49.4219ZM526.391 30.7188C519.734 30.7188 514.953 36.7188 514.953 46.2344C514.953 55.7969 519.734 61.7969 526.391 61.7969C533 61.7969 537.781 55.7969 537.781 46.2344C537.781 36.7188 533 30.7188 526.391 30.7188ZM521 46.2344C521 39.8125 523.156 36.3906 526.391 36.3906C529.578 36.3906 531.781 39.8125 531.781 46.2344C531.781 52.7031 529.578 56.125 526.391 56.125C523.156 56.125 521 52.7031 521 46.2344ZM542.469 71.1719H548.75V49.2344H555.031V44.125H548.75V27.7656H542.469V71.1719ZM594.819 61.0469H586.1V50.4062C589.381 48.3906 591.35 45.2969 591.35 41.5469C591.35 34.4219 584.459 29.875 575.084 29.875C565.756 29.875 558.866 34.4219 558.866 41.5469C558.866 45.2969 560.834 48.3906 564.116 50.4062V61.0469H555.491V66.1094H594.819V61.0469ZM565.053 41.5469C565.053 37.2344 569.038 34.7031 575.084 34.7031C581.131 34.7031 585.163 37.2344 585.163 41.5469C585.163 45.8125 581.131 48.3438 575.084 48.3438C569.038 48.3438 565.053 45.8125 565.053 41.5469ZM570.35 61.0469V52.75C571.85 53.0312 573.397 53.1719 575.084 53.1719C576.772 53.1719 578.366 53.0312 579.866 52.75V61.0469H570.35ZM602.919 54.2031V56.3594H607.044L607.278 54.9062C607.513 53.125 608.263 51.4375 611.263 48.5312C614.356 45.9062 615.669 43.5625 615.669 40.3281C615.669 35.3125 611.591 31.9844 605.403 31.9844C601.372 31.9844 597.153 33.4844 594.434 35.875L596.684 41.2188C599.263 38.9688 601.934 37.9375 604.794 37.9375C607.325 37.9375 608.638 39.0625 608.638 41.0781C608.638 42.9062 607.794 44.2188 606.294 46.0469C603.622 49.2344 602.919 51.4375 602.919 54.2031ZM601.231 67H608.684V59.5469H601.231V67Z" fill="white"/>
<path d="M812.717 37.2459C812.121 36.5939 811.937 35.4957 811.937 34.6126C811.937 33.1697 810.622 32 809 32C807.378 32 806.063 33.1697 806.063 34.6126C806.063 35.4957 805.879 36.5939 805.283 37.2459C804.613 37.9788 804.212 38.9136 804.212 39.9319C804.212 40.4016 804.297 40.8535 804.455 41.276C804.787 42.1651 804.631 43.3519 803.927 43.9887C802.663 45.1314 801.884 46.6991 801.884 48.4288C801.884 49.4161 802.138 50.3506 802.591 51.1835C803.015 51.9643 802.874 53.0218 802.189 53.5887C800.227 55.2131 799 57.5306 799 60.103C799 65.0167 803.477 69 809 69C814.523 69 819 65.0167 819 60.103C819 57.5306 817.773 55.2131 815.811 53.5887C815.126 53.0218 814.985 51.9643 815.409 51.1835C815.862 50.3506 816.116 49.4161 816.116 48.4288C816.116 46.6991 815.337 45.1314 814.073 43.9887C813.369 43.3519 813.213 42.1651 813.545 41.276C813.703 40.8535 813.788 40.4016 813.788 39.9319C813.788 38.9136 813.387 37.9788 812.717 37.2459Z" fill="white"/>
<path d="M808.141 63.2786L808.427 61.6712C809.139 61.6712 809.759 61.652 810.288 61.6137C810.816 61.5678 811.253 61.5028 811.598 61.4186C811.95 61.3267 812.211 61.2081 812.38 61.0626C812.556 60.9172 812.644 60.7411 812.644 60.5345C812.644 60.2589 812.6 59.9298 812.512 59.5471C812.424 59.1567 812.31 58.7625 812.17 58.3645L813.613 57.9282C813.708 58.1884 813.8 58.4755 813.888 58.7893C813.976 59.0955 814.046 59.4055 814.097 59.7193C814.156 60.0255 814.185 60.3125 814.185 60.5804C814.185 61.055 814.086 61.4645 813.888 61.8089C813.69 62.1457 813.359 62.4251 812.897 62.6471C812.442 62.8614 811.825 63.0183 811.048 63.1178C810.27 63.225 809.301 63.2786 808.141 63.2786ZM808.13 63.2786C807.338 63.2786 806.666 63.2135 806.116 63.0834C805.572 62.9609 805.128 62.7849 804.783 62.5552C804.446 62.318 804.2 62.0424 804.046 61.7286C803.892 61.4147 803.815 61.0703 803.815 60.6952C803.815 60.4503 803.833 60.2053 803.87 59.9604C803.914 59.7078 803.965 59.4629 804.024 59.2256C804.09 58.9883 804.149 58.774 804.2 58.5826L805.576 58.9156C805.547 59.0534 805.514 59.2026 805.477 59.3634C805.44 59.5241 805.411 59.681 805.389 59.8341C805.367 59.9795 805.356 60.1135 805.356 60.236C805.356 60.5192 805.451 60.7718 805.642 60.9937C805.84 61.2081 806.163 61.3765 806.611 61.4989C807.059 61.6137 807.66 61.6712 808.416 61.6712L808.637 62.9112L808.13 63.2786ZM809.947 58.0315C809.734 58.0315 809.55 57.955 809.396 57.8019C809.249 57.6411 809.176 57.4536 809.176 57.2393C809.176 57.0173 809.249 56.8259 809.396 56.6652C809.55 56.5045 809.734 56.4241 809.947 56.4241C810.152 56.4241 810.328 56.5045 810.475 56.6652C810.622 56.8259 810.695 57.0173 810.695 57.2393C810.695 57.4536 810.622 57.6411 810.475 57.8019C810.328 57.955 810.152 58.0315 809.947 58.0315ZM808.042 58.02C807.829 58.02 807.646 57.9435 807.492 57.7904C807.345 57.6296 807.271 57.4421 807.271 57.2278C807.271 57.0058 807.345 56.8145 807.492 56.6537C807.646 56.493 807.829 56.4126 808.042 56.4126C808.248 56.4126 808.424 56.493 808.571 56.6537C808.717 56.8145 808.791 57.0058 808.791 57.2278C808.791 57.4421 808.717 57.6296 808.571 57.7904C808.424 57.9435 808.248 58.02 808.042 58.02Z" fill="#0046FE"/>
</svg>
