<svg width="831" height="101" viewBox="0 0 831 101" fill="none" xmlns="http://www.w3.org/2000/svg">
<path d="M0 0H759.5L831 101H0V0Z" fill="#0046FE"/>
<path d="M129.688 72.128V27.92H123.352V72.128H129.688ZM110.152 39.824V37.376H119.272V32.144H94.504V37.376H103.72V39.824C103.72 47.36 100.168 55.472 92.728 58.784L96.328 63.824C101.512 61.472 105.064 56.672 107.032 50.864C109 56.288 112.456 60.464 117.64 62.72L121.096 57.728C113.704 54.656 110.152 47.024 110.152 39.824ZM171.732 72.08V27.872H165.396V72.08H171.732ZM143.412 55.808V32.096H137.124V61.232H141.06C147.828 61.232 155.124 60.752 162.66 59.168L161.988 53.888C155.412 55.184 149.22 55.664 143.412 55.808ZM181.52 44.912H212.192V39.872H187.856V29.504H181.52V44.912ZM216.608 54.512V49.424H176.576V54.512H216.608ZM212.432 66.128H187.472V58.016H181.088V71.216H212.432V66.128ZM262.904 53.312L265.496 48.08C255.416 46.448 249.992 39.872 249.992 33.536V30.368H243.224V33.536C243.224 39.68 237.752 46.4 227.768 48.08L230.36 53.312C238.088 51.92 243.704 47.744 246.584 42.32C249.464 47.936 254.792 51.92 262.904 53.312ZM266.84 66.896V61.808H249.8V51.92H243.464V61.808H226.808V66.896H266.84ZM299.428 27.92V53.6H291.124V57.92H299.428V61.424H305.764V27.92H299.428ZM282.628 45.2C289.012 45.2 293.62 42.032 293.62 37.328C293.62 32.576 289.012 29.408 282.628 29.408C276.148 29.408 271.588 32.576 271.588 37.328C271.588 42.032 276.148 45.2 282.628 45.2ZM282.628 34.016C285.556 34.016 287.62 35.168 287.62 37.328C287.62 39.488 285.556 40.592 282.628 40.592C279.556 40.592 277.588 39.488 277.588 37.328C277.588 35.168 279.556 34.016 282.628 34.016ZM306.724 71.36V66.32H280.276V60.272H286.372V51.92C290.02 51.68 293.476 51.296 296.932 50.672L296.5 46.16C287.188 47.312 276.436 47.504 268.372 47.504L269.188 52.544C272.5 52.544 276.196 52.496 280.084 52.304V58.208H273.94V71.36H306.724ZM348.24 72.128V27.872H342.24V44.912H338.256V28.736H332.352V70.064H338.256V50H342.24V72.128H348.24ZM317.808 56.96V38.144H327.936V33.008H311.568V62.192H314.64C320.256 62.192 325.008 62 330.384 60.992L329.904 55.856C325.68 56.624 322.032 56.816 317.808 56.96ZM392.109 67.28V62.096H375.213V55.52H388.605V50.432H362.973V45.488H387.597V30.752H356.637V35.792H381.357V40.544H356.685V55.52H368.877V62.096H352.077V67.28H392.109ZM402.308 37.52H428.324L428.372 32.576H418.484V27.872H412.1V32.576H402.308V37.52ZM442.964 46.64V41.408H437.108V27.92H430.772V60.992H437.108V46.64H442.964ZM426.164 47.6C426.164 42.608 421.604 39.104 415.316 39.104C408.932 39.104 404.468 42.608 404.468 47.6C404.468 52.688 408.932 56.144 415.316 56.144C421.604 56.144 426.164 52.688 426.164 47.6ZM410.516 47.6C410.516 45.152 412.436 43.904 415.316 43.904C418.196 43.904 420.116 45.152 420.116 47.6C420.116 50.048 418.196 51.344 415.316 51.344C412.436 51.344 410.516 50.048 410.516 47.6ZM438.692 66.32H414.932V58.544H408.596V71.36H438.692V66.32ZM475.531 44.768H483.163V57.296H489.499V27.92H483.163V39.632H475.531V44.768ZM475.339 31.232H455.371V36.32H468.523C467.611 42.656 462.955 47.552 453.115 50.48L455.707 55.424C469.003 51.248 475.339 43.328 475.339 31.232ZM477.787 55.472V54.032H471.499V55.472C471.499 60.464 467.035 65.696 457.675 67.088L460.123 72.08C467.083 70.88 471.931 67.712 474.619 63.488C477.307 67.712 482.107 70.832 489.067 71.984L491.563 67.04C482.203 65.648 477.787 60.464 477.787 55.472ZM515.511 47.504H531.111V29.408H525.159V33.68H521.415V29.408H515.511V47.504ZM497.367 47.504H513.063V29.408H507.159V33.68H503.319V29.408H497.367V47.504ZM521.415 38.528H525.159V42.464H521.415V38.528ZM503.319 38.528H507.159V42.464H503.319V38.528ZM534.327 55.664V50.672H494.247V55.664H511.671V62.768H518.007V55.664H534.327ZM529.863 66.416H505.239V59.456H498.903V71.504H529.863V66.416ZM572.675 72.224V27.872H566.339V72.224H572.675ZM548.915 30.992C542.243 30.992 537.299 37.04 537.299 46.736C537.299 56.48 542.243 62.576 548.915 62.576C555.587 62.576 560.531 56.48 560.531 46.736C560.531 37.04 555.587 30.992 548.915 30.992ZM548.915 36.704C552.179 36.704 554.435 40.16 554.435 46.736C554.435 53.312 552.179 56.816 548.915 56.816C545.651 56.816 543.395 53.312 543.395 46.736C543.395 40.16 545.651 36.704 548.915 36.704ZM615.728 72.08V27.872H609.728V72.08H615.728ZM606.656 28.64H600.752V44.192H597.248C596.528 35.552 592.976 31.04 587.744 31.04C581.888 31.04 578.192 37.088 578.192 47.072C578.192 57.104 581.888 63.152 587.744 63.152C593.168 63.152 596.72 58.016 597.296 49.328H600.752V70.16H606.656V28.64ZM587.744 57.2C585.296 57.2 583.904 54.032 583.904 47.072C583.904 40.304 585.296 36.992 587.744 36.992C590.192 36.992 591.584 40.304 591.584 47.072C591.584 54.032 590.192 57.2 587.744 57.2ZM659.596 66.992V61.856H650.716V51.056C654.028 48.992 656.044 45.824 656.044 41.984C656.044 34.736 649.084 30.08 639.532 30.08C630.076 30.08 623.068 34.736 623.068 41.984C623.02 45.824 624.94 48.992 628.396 51.056V61.856H619.564V66.992H659.596ZM639.532 35.072C645.676 35.072 649.804 37.568 649.804 41.984C649.804 46.4 645.676 48.896 639.532 48.896C633.388 48.896 629.308 46.4 629.308 41.984C629.308 37.568 633.388 35.072 639.532 35.072ZM644.428 61.856H634.684V53.408C636.22 53.696 637.852 53.84 639.532 53.84C641.26 53.84 642.892 53.696 644.428 53.408V61.856ZM665.832 57.824H670.44L671.448 38.192L671.688 31.52H664.584L664.824 38.192L665.832 57.824ZM664.68 68.672H671.688V61.856H664.68V68.672Z" fill="white"/>
<path d="M26.1269 36.2459C25.5131 35.5939 25.3233 34.4957 25.3233 33.6126C25.3233 32.1697 23.9692 31 22.299 31C20.6287 31 19.2747 32.1697 19.2747 33.6126C19.2747 34.4957 19.0848 35.5939 18.471 36.2459C17.781 36.9788 17.3675 37.9136 17.3675 38.9319C17.3675 39.4016 17.4554 39.8535 17.6179 40.276C17.9598 41.1651 17.7993 42.3519 17.0741 42.9887C15.7727 44.1314 14.9698 45.6991 14.9698 47.4288C14.9698 48.4161 15.2314 49.3506 15.698 50.1835C16.1355 50.9643 15.9896 52.0218 15.2843 52.5887C13.2638 54.2131 12 56.5306 12 59.103C12 64.0167 16.611 68 22.299 68C27.9869 68 32.5979 64.0167 32.5979 59.103C32.5979 56.5306 31.3341 54.2131 29.3136 52.5887C28.6084 52.0218 28.4625 50.9643 28.8999 50.1835C29.3665 49.3506 29.6281 48.4161 29.6281 47.4288C29.6281 45.6991 28.8252 44.1314 27.5238 42.9887C26.7987 42.3519 26.6381 41.1651 26.98 40.276C27.1425 39.8535 27.2305 39.4016 27.2305 38.9319C27.2305 37.9136 26.8169 36.9788 26.1269 36.2459Z" fill="white"/>
<path d="M21.4148 62.2786L21.7096 60.6712C22.4428 60.6712 23.0815 60.652 23.6257 60.6137C24.17 60.5678 24.6197 60.5028 24.975 60.4186C25.3378 60.3267 25.6061 60.2081 25.78 60.0626C25.9614 59.9172 26.0521 59.7411 26.0521 59.5345C26.0521 59.2589 26.0067 58.9298 25.916 58.5471C25.8253 58.1567 25.7082 57.7625 25.5645 57.3645L27.0498 56.9282C27.1481 57.1884 27.2426 57.4755 27.3333 57.7893C27.424 58.0955 27.4958 58.4055 27.5487 58.7193C27.6092 59.0255 27.6394 59.3125 27.6394 59.5804C27.6394 60.055 27.5374 60.4645 27.3333 60.8089C27.1292 61.1457 26.789 61.4251 26.3128 61.6471C25.8442 61.8614 25.2093 62.0183 24.4081 62.1178C23.6068 62.225 22.6091 62.2786 21.4148 62.2786ZM21.4035 62.2786C20.5871 62.2786 19.8955 62.2135 19.3286 62.0834C18.7693 61.9609 18.312 61.7849 17.9567 61.5552C17.609 61.318 17.3558 61.0424 17.1971 60.7286C17.0384 60.4147 16.959 60.0703 16.959 59.6952C16.959 59.4503 16.9779 59.2053 17.0157 58.9604C17.061 58.7078 17.1139 58.4629 17.1744 58.2256C17.2424 57.9883 17.3029 57.774 17.3558 57.5826L18.7731 57.9156C18.7428 58.0534 18.7088 58.2026 18.671 58.3634C18.6332 58.5241 18.603 58.681 18.5803 58.8341C18.5576 58.9795 18.5463 59.1135 18.5463 59.236C18.5463 59.5192 18.6446 59.7718 18.8411 59.9937C19.0452 60.2081 19.3778 60.3765 19.8388 60.4989C20.2999 60.6137 20.9197 60.6712 21.6983 60.6712L21.925 61.9112L21.4035 62.2786ZM23.2743 57.0315C23.0551 57.0315 22.8661 56.955 22.7074 56.8019C22.5562 56.6411 22.4806 56.4536 22.4806 56.2393C22.4806 56.0173 22.5562 55.8259 22.7074 55.6652C22.8661 55.5045 23.0551 55.4241 23.2743 55.4241C23.4859 55.4241 23.6673 55.5045 23.8185 55.6652C23.9697 55.8259 24.0452 56.0173 24.0452 56.2393C24.0452 56.4536 23.9697 56.6411 23.8185 56.8019C23.6673 56.955 23.4859 57.0315 23.2743 57.0315ZM21.3128 57.02C21.0936 57.02 20.9046 56.9435 20.7459 56.7904C20.5947 56.6296 20.5191 56.4421 20.5191 56.2278C20.5191 56.0058 20.5947 55.8145 20.7459 55.6537C20.9046 55.493 21.0936 55.4126 21.3128 55.4126C21.5244 55.4126 21.7058 55.493 21.857 55.6537C22.0082 55.8145 22.0838 56.0058 22.0838 56.2278C22.0838 56.4421 22.0082 56.6296 21.857 56.7904C21.7058 56.9435 21.5244 57.02 21.3128 57.02Z" fill="white"/>
<path d="M25.7168 36.2459C25.1208 35.5939 24.9365 34.4957 24.9365 33.6126C24.9365 32.1697 23.6218 31 22 31C20.3782 31 19.0635 32.1697 19.0635 33.6126C19.0635 34.4957 18.8792 35.5939 18.2832 36.2459C17.6132 36.9788 17.2116 37.9136 17.2116 38.9319C17.2116 39.4016 17.2971 39.8535 17.4548 40.276C17.7868 41.1651 17.6309 42.3519 16.9268 42.9887C15.6632 44.1314 14.8836 45.6991 14.8836 47.4288C14.8836 48.4161 15.1376 49.3506 15.5907 50.1835C16.0154 50.9643 15.8738 52.0218 15.189 52.5887C13.2271 54.2131 12 56.5306 12 59.103C12 64.0167 16.4772 68 22 68C27.5228 68 32 64.0167 32 59.103C32 56.5306 30.7729 54.2131 28.811 52.5887C28.1262 52.0218 27.9846 50.9643 28.4093 50.1835C28.8624 49.3506 29.1164 48.4161 29.1164 47.4288C29.1164 45.6991 28.3368 44.1314 27.0732 42.9887C26.3691 42.3519 26.2132 41.1651 26.5452 40.276C26.7029 39.8535 26.7884 39.4016 26.7884 38.9319C26.7884 37.9136 26.3868 36.9788 25.7168 36.2459Z" fill="white"/>
<path d="M21.1414 62.2786L21.4277 60.6712C22.1396 60.6712 22.7597 60.652 23.2882 60.6137C23.8166 60.5678 24.2533 60.5028 24.5982 60.4186C24.9505 60.3267 25.2111 60.2081 25.3799 60.0626C25.556 59.9172 25.6441 59.7411 25.6441 59.5345C25.6441 59.2589 25.6 58.9298 25.512 58.5471C25.4239 58.1567 25.3101 57.7625 25.1707 57.3645L26.6128 56.9282C26.7083 57.1884 26.8 57.4755 26.8881 57.7893C26.9761 58.0955 27.0459 58.4055 27.0972 58.7193C27.156 59.0255 27.1853 59.3125 27.1853 59.5804C27.1853 60.055 27.0862 60.4645 26.8881 60.8089C26.6899 61.1457 26.3596 61.4251 25.8973 61.6471C25.4422 61.8614 24.8257 62.0183 24.0478 62.1178C23.2698 62.225 22.301 62.2786 21.1414 62.2786ZM21.1304 62.2786C20.3378 62.2786 19.6662 62.2135 19.1158 62.0834C18.5727 61.9609 18.1287 61.7849 17.7837 61.5552C17.4461 61.318 17.2003 61.0424 17.0461 60.7286C16.892 60.4147 16.8149 60.0703 16.8149 59.6952C16.8149 59.4503 16.8333 59.2053 16.87 58.9604C16.914 58.7078 16.9654 58.4629 17.0241 58.2256C17.0902 57.9883 17.1489 57.774 17.2003 57.5826L18.5764 57.9156C18.547 58.0534 18.514 58.2026 18.4773 58.3634C18.4406 58.5241 18.4112 58.681 18.3892 58.8341C18.3672 58.9795 18.3562 59.1135 18.3562 59.236C18.3562 59.5192 18.4516 59.7718 18.6424 59.9937C18.8406 60.2081 19.1635 60.3765 19.6112 60.4989C20.0589 60.6137 20.6607 60.6712 21.4167 60.6712L21.6368 61.9112L21.1304 62.2786ZM22.9469 57.0315C22.7341 57.0315 22.5506 56.955 22.3964 56.8019C22.2497 56.6411 22.1763 56.4536 22.1763 56.2393C22.1763 56.0173 22.2497 55.8259 22.3964 55.6652C22.5506 55.5045 22.7341 55.4241 22.9469 55.4241C23.1524 55.4241 23.3285 55.5045 23.4753 55.6652C23.6221 55.8259 23.6955 56.0173 23.6955 56.2393C23.6955 56.4536 23.6221 56.6411 23.4753 56.8019C23.3285 56.955 23.1524 57.0315 22.9469 57.0315ZM21.0424 57.02C20.8295 57.02 20.646 56.9435 20.4919 56.7904C20.3451 56.6296 20.2717 56.4421 20.2717 56.2278C20.2717 56.0058 20.3451 55.8145 20.4919 55.6537C20.646 55.493 20.8295 55.4126 21.0424 55.4126C21.2479 55.4126 21.424 55.493 21.5708 55.6537C21.7176 55.8145 21.791 56.0058 21.791 56.2278C21.791 56.4421 21.7176 56.6296 21.5708 56.7904C21.424 56.9435 21.2479 57.02 21.0424 57.02Z" fill="#0046FE"/>
</svg>
