<svg width="831" height="101" viewBox="0 0 831 101" fill="none" xmlns="http://www.w3.org/2000/svg">
<path d="M82.5 0H831V101H0L82.5 0Z" fill="#0046FE"/>
<path d="M207.922 27.6719H201.688V71.2188H207.922V27.6719ZM173.141 46.2344C173.141 55.7969 177.969 61.7969 184.531 61.7969C191.141 61.7969 195.969 55.7969 195.969 46.2344C195.969 36.7188 191.141 30.7188 184.531 30.7188C177.969 30.7188 173.141 36.7188 173.141 46.2344ZM179.141 46.2344C179.141 39.8125 181.297 36.3906 184.531 36.3906C187.766 36.3906 189.969 39.8125 189.969 46.2344C189.969 52.7031 187.766 56.125 184.531 56.125C181.297 56.125 179.141 52.7031 179.141 46.2344ZM248.975 27.7188H242.694V40.375H235.241V45.4375H242.694V59.4531H248.975V27.7188ZM213.116 50.3125L215.694 55.2812C228.303 51.2969 235.569 42.7188 235.569 31H215.366V35.9688H228.866C227.834 42.3438 222.162 47.4531 213.116 50.3125ZM220.522 70.4219H250.053V65.4062H226.756V56.3125H220.522V70.4219ZM278.675 39.4844V37.0469H287.628V31.8906H263.253V37.0469H272.3V39.4844C272.3 46.7969 268.784 54.8125 261.519 58.0938L265.081 63.0156C270.191 60.6719 273.659 55.9844 275.581 50.3594C277.55 55.5156 280.972 59.7812 285.988 61.9375L289.409 56.9688C282.144 53.9688 278.675 46.4688 278.675 39.4844ZM291.659 71.1719H297.894V27.7656H291.659V71.1719ZM338.853 27.7188H332.666V71.125H338.853V27.7188ZM304.869 60.4375H308.712C315.369 60.4375 322.541 60.0156 329.947 58.4688L329.291 53.2656C322.962 54.5312 316.822 55 311.103 55.1406V31.8438H304.869V60.4375ZM357.312 30.625C350.469 30.625 345.312 35.0781 345.312 41.3125C345.312 47.5469 350.469 52 357.312 52C364.109 52 369.219 47.5469 369.219 41.3125C369.219 35.0781 364.109 30.625 357.312 30.625ZM343.531 57.3906L344.234 62.4531C351.781 62.4531 361.953 62.3125 371.375 60.4844L370.953 55.9844C361.766 57.2969 351.125 57.3906 343.531 57.3906ZM351.406 41.3125C351.406 37.8906 353.938 35.9688 357.312 35.9688C360.594 35.9688 363.125 37.8906 363.125 41.3125C363.125 44.6875 360.594 46.7031 357.312 46.7031C353.938 46.7031 351.406 44.6875 351.406 41.3125ZM373.297 71.2188H379.531V27.6719H373.297V71.2188ZM406.231 37.6094V37.5156H412.747V32.5938H406.231V28.1406H400.325V32.5938H393.716V37.5156H400.325V37.6094C400.325 42.25 397.981 46.7031 392.544 48.7656L395.356 53.3594C399.294 51.9062 401.919 49.1875 403.372 45.8125C404.919 48.9062 407.45 51.3438 411.294 52.6562L414.012 48.0156C408.622 46.1406 406.231 41.9688 406.231 37.6094ZM399.716 61.1875H423.341V71.1719H429.575V56.2188H399.716V61.1875ZM414.622 54.1562H420.434V43.6094H423.622V54.3906H429.575V27.7656H423.622V38.5938H420.434V28.4688H414.622V54.1562ZM469.362 27.7656H463.128V52.3281H469.362V27.7656ZM433.925 40.1406C433.925 46.1875 438.987 50.5938 445.737 50.5938C452.487 50.5938 457.55 46.1875 457.55 40.1406C457.55 34.0469 452.487 29.7344 445.737 29.7344C438.987 29.7344 433.925 34.0469 433.925 40.1406ZM440.019 40.1406C440.019 36.8594 442.456 34.8906 445.737 34.8906C449.019 34.8906 451.456 36.8594 451.456 40.1406C451.456 43.4219 449.019 45.3906 445.737 45.3906C442.456 45.3906 440.019 43.4219 440.019 40.1406ZM440.487 70.7031H469.362V54.25H440.487V70.7031ZM446.628 65.7812V59.1719H463.269V65.7812H446.628ZM510.041 27.6719H503.806V71.2188H510.041V27.6719ZM475.259 46.2344C475.259 55.7969 480.087 61.7969 486.65 61.7969C493.259 61.7969 498.087 55.7969 498.087 46.2344C498.087 36.7188 493.259 30.7188 486.65 30.7188C480.087 30.7188 475.259 36.7188 475.259 46.2344ZM481.259 46.2344C481.259 39.8125 483.416 36.3906 486.65 36.3906C489.884 36.3906 492.087 39.8125 492.087 46.2344C492.087 52.7031 489.884 56.125 486.65 56.125C483.416 56.125 481.259 52.7031 481.259 46.2344ZM534.913 30.7188C528.256 30.7188 523.475 36.7188 523.475 46.2344C523.475 55.7969 528.256 61.7969 534.913 61.7969C541.522 61.7969 546.303 55.7969 546.303 46.2344C546.303 36.7188 541.522 30.7188 534.913 30.7188ZM529.522 46.2344C529.522 39.8125 531.678 36.3906 534.913 36.3906C538.1 36.3906 540.303 39.8125 540.303 46.2344C540.303 52.7031 538.1 56.125 534.913 56.125C531.678 56.125 529.522 52.7031 529.522 46.2344ZM550.991 71.1719H557.272V49.2344H563.553V44.125H557.272V27.7656H550.991V71.1719ZM600.247 27.7188H594.059V71.125H600.247V27.7188ZM566.263 60.4375H570.106C576.763 60.4375 583.934 60.0156 591.341 58.4688L590.684 53.2656C584.356 54.5312 578.216 55 572.497 55.1406V31.8438H566.263V60.4375ZM642.003 27.7188H636.05V71.125H642.003V27.7188ZM605.066 46.5625C605.066 56.4062 608.769 62.3594 614.487 62.3594C619.831 62.3594 623.347 57.25 623.862 48.7188H627.237V69.2031H633.05V28.4219H627.237V43.7031H623.816C623.159 35.5938 619.691 30.7656 614.487 30.7656C608.769 30.7656 605.066 36.7656 605.066 46.5625ZM610.737 46.5625C610.737 39.9062 612.097 36.6719 614.487 36.6719C616.878 36.6719 618.237 39.9062 618.237 46.5625C618.237 53.1719 616.878 56.4531 614.487 56.4531C612.097 56.4531 610.737 53.1719 610.737 46.5625ZM684.791 61.0469H676.072V50.4062C679.353 48.3906 681.322 45.2969 681.322 41.5469C681.322 34.4219 674.431 29.875 665.056 29.875C655.728 29.875 648.837 34.4219 648.837 41.5469C648.837 45.2969 650.806 48.3906 654.087 50.4062V61.0469H645.462V66.1094H684.791V61.0469ZM655.025 41.5469C655.025 37.2344 659.009 34.7031 665.056 34.7031C671.103 34.7031 675.134 37.2344 675.134 41.5469C675.134 45.8125 671.103 48.3438 665.056 48.3438C659.009 48.3438 655.025 45.8125 655.025 41.5469ZM660.322 61.0469V52.75C661.822 53.0312 663.369 53.1719 665.056 53.1719C666.744 53.1719 668.337 53.0312 669.837 52.75V61.0469H660.322ZM686.609 67H694.062V59.5469H686.609V67ZM696.397 67H703.85V59.5469H696.397V67Z" fill="white"/>
<path d="M812.717 37.2459C812.121 36.5939 811.937 35.4957 811.937 34.6126C811.937 33.1697 810.622 32 809 32C807.378 32 806.063 33.1697 806.063 34.6126C806.063 35.4957 805.879 36.5939 805.283 37.2459C804.613 37.9788 804.212 38.9136 804.212 39.9319C804.212 40.4016 804.297 40.8535 804.455 41.276C804.787 42.1651 804.631 43.3519 803.927 43.9887C802.663 45.1314 801.884 46.6991 801.884 48.4288C801.884 49.4161 802.138 50.3506 802.591 51.1835C803.015 51.9643 802.874 53.0218 802.189 53.5887C800.227 55.2131 799 57.5306 799 60.103C799 65.0167 803.477 69 809 69C814.523 69 819 65.0167 819 60.103C819 57.5306 817.773 55.2131 815.811 53.5887C815.126 53.0218 814.985 51.9643 815.409 51.1835C815.862 50.3506 816.116 49.4161 816.116 48.4288C816.116 46.6991 815.337 45.1314 814.073 43.9887C813.369 43.3519 813.213 42.1651 813.545 41.276C813.703 40.8535 813.788 40.4016 813.788 39.9319C813.788 38.9136 813.387 37.9788 812.717 37.2459Z" fill="white"/>
<path d="M808.141 63.2786L808.427 61.6712C809.139 61.6712 809.759 61.652 810.288 61.6137C810.816 61.5678 811.253 61.5028 811.598 61.4186C811.95 61.3267 812.211 61.2081 812.38 61.0626C812.556 60.9172 812.644 60.7411 812.644 60.5345C812.644 60.2589 812.6 59.9298 812.512 59.5471C812.424 59.1567 812.31 58.7625 812.17 58.3645L813.613 57.9282C813.708 58.1884 813.8 58.4755 813.888 58.7893C813.976 59.0955 814.046 59.4055 814.097 59.7193C814.156 60.0255 814.185 60.3125 814.185 60.5804C814.185 61.055 814.086 61.4645 813.888 61.8089C813.69 62.1457 813.359 62.4251 812.897 62.6471C812.442 62.8614 811.825 63.0183 811.048 63.1178C810.27 63.225 809.301 63.2786 808.141 63.2786ZM808.13 63.2786C807.338 63.2786 806.666 63.2135 806.116 63.0834C805.572 62.9609 805.128 62.7849 804.783 62.5552C804.446 62.318 804.2 62.0424 804.046 61.7286C803.892 61.4147 803.815 61.0703 803.815 60.6952C803.815 60.4503 803.833 60.2053 803.87 59.9604C803.914 59.7078 803.965 59.4629 804.024 59.2256C804.09 58.9883 804.149 58.774 804.2 58.5826L805.576 58.9156C805.547 59.0534 805.514 59.2026 805.477 59.3634C805.44 59.5241 805.411 59.681 805.389 59.8341C805.367 59.9795 805.356 60.1135 805.356 60.236C805.356 60.5192 805.451 60.7718 805.642 60.9937C805.84 61.2081 806.163 61.3765 806.611 61.4989C807.059 61.6137 807.66 61.6712 808.416 61.6712L808.637 62.9112L808.13 63.2786ZM809.947 58.0315C809.734 58.0315 809.55 57.955 809.396 57.8019C809.249 57.6411 809.176 57.4536 809.176 57.2393C809.176 57.0173 809.249 56.8259 809.396 56.6652C809.55 56.5045 809.734 56.4241 809.947 56.4241C810.152 56.4241 810.328 56.5045 810.475 56.6652C810.622 56.8259 810.695 57.0173 810.695 57.2393C810.695 57.4536 810.622 57.6411 810.475 57.8019C810.328 57.955 810.152 58.0315 809.947 58.0315ZM808.042 58.02C807.829 58.02 807.646 57.9435 807.492 57.7904C807.345 57.6296 807.271 57.4421 807.271 57.2278C807.271 57.0058 807.345 56.8145 807.492 56.6537C807.646 56.493 807.829 56.4126 808.042 56.4126C808.248 56.4126 808.424 56.493 808.571 56.6537C808.717 56.8145 808.791 57.0058 808.791 57.2278C808.791 57.4421 808.717 57.6296 808.571 57.7904C808.424 57.9435 808.248 58.02 808.042 58.02Z" fill="#0046FE"/>
</svg>
