<svg width="831" height="101" viewBox="0 0 831 101" fill="none" xmlns="http://www.w3.org/2000/svg">
<path d="M0 0H759.5L831 101H0V0Z" fill="#0046FE"/>
<path d="M97.192 37.04H121.816V37.232C121.816 43.232 121.768 49.52 120.232 57.968L126.52 58.544C128.2 49.472 128.152 43.424 128.152 37.232V32H97.192V37.04ZM133.048 66.368V61.184H93.064V66.368H133.048ZM172.74 72.08V27.872H166.74V44.576H162.756V28.688H156.852V70.016H162.756V49.664H166.74V72.08H172.74ZM142.164 57.152V49.328H152.676V32.192H135.972V37.28H146.58V44.336H136.02V62.336H139.14C144.468 62.336 149.22 62.192 154.932 61.28L154.452 56.144C150.036 56.864 146.196 57.008 142.164 57.152ZM216.608 67.136V61.952H199.712V52.736H212.336V47.648H187.616V36.032H212V30.944H181.232V52.736H193.376V61.952H176.576V67.136H216.608ZM249.32 54.176H255.224V43.952H258.488V55.568H264.488V27.92H258.488V38.816H255.224V28.736H249.32V54.176ZM226.568 37.328H248.12V32.432H240.44V28.4H234.2V32.432H226.568V37.328ZM246.92 46.448C246.92 41.84 242.984 38.768 237.416 38.768C231.8 38.768 227.864 41.84 227.864 46.448C227.864 51.008 231.8 54.176 237.416 54.176C242.984 54.176 246.92 51.008 246.92 46.448ZM233.48 46.448C233.48 44.384 235.064 43.28 237.416 43.28C239.768 43.28 241.304 44.384 241.304 46.448C241.304 48.512 239.768 49.664 237.416 49.664C235.064 49.664 233.48 48.512 233.48 46.448ZM249.512 56.048C239.672 56.048 234.296 58.928 234.296 64.112C234.296 69.296 239.672 72.128 249.512 72.128C259.352 72.128 264.728 69.296 264.728 64.112C264.728 58.928 259.352 56.048 249.512 56.048ZM249.512 67.424C243.512 67.424 240.632 66.416 240.632 64.112C240.632 61.808 243.512 60.8 249.512 60.8C255.512 60.8 258.392 61.808 258.392 64.112C258.392 66.416 255.512 67.424 249.512 67.424ZM308.548 54.8V49.76H291.652V46.112H303.46V29.072H297.172V32.96H279.94V29.072H273.652V46.112H285.316V49.76H268.564V54.8H308.548ZM297.172 41.168H279.94V37.712H297.172V41.168ZM303.7 57.824H272.98V62.864H297.364V72.176H303.7V57.824ZM345.024 50.432H351.36V45.2H345.024V27.92H338.688V72.128H345.024V50.432ZM335.808 34.448H326.208V28.688H319.872V34.448H310.08V39.488H335.808V34.448ZM323.088 41.984C316.656 41.984 311.856 46.352 311.856 52.496C311.856 58.784 316.656 63.104 323.088 63.104C329.472 63.104 334.224 58.784 334.224 52.496C334.224 46.352 329.472 41.984 323.088 41.984ZM323.088 57.92C320.016 57.92 317.904 56 317.904 52.544C317.904 49.088 320.016 47.12 323.088 47.12C326.16 47.12 328.224 49.184 328.224 52.496C328.224 55.952 326.16 57.92 323.088 57.92ZM382.413 50.24H388.749V27.968H382.413V50.24ZM376.173 49.712L379.197 44.768C372.045 42.704 368.877 37.472 368.877 32.288V28.976H362.445V32.288C362.445 37.664 359.181 43.184 351.885 45.488L354.957 50.432C360.141 48.848 363.693 45.536 365.757 41.312C367.725 45.152 371.133 48.224 376.173 49.712ZM389.901 71.792V66.896H365.661V64.16H388.797V52.208H359.325V57.056H382.509V59.648H359.373V71.792H389.901ZM430.793 72.128V27.92H424.457V44.864H415.913V50H424.457V72.128H430.793ZM416.201 32.48H395.417V37.52H409.769C408.857 47.12 404.345 54.08 393.305 59.6L396.665 64.496C411.881 56.816 416.201 45.824 416.201 32.48ZM473.509 72.08V27.872H467.509V72.08H473.509ZM464.629 28.64H458.725V37.664H453.637C451.957 33.392 449.221 31.04 445.573 31.04C439.669 31.04 435.973 37.088 435.973 47.072C435.973 57.104 439.669 63.152 445.573 63.152C449.221 63.152 452.005 60.704 453.685 56.432H458.725V70.112H464.629V28.64ZM445.573 57.2C443.077 57.2 441.637 53.84 441.637 47.072C441.637 40.304 443.077 36.992 445.573 36.992C448.021 36.992 449.461 40.304 449.461 47.072C449.461 53.84 448.021 57.2 445.573 57.2ZM458.725 42.752V51.296H454.885C455.029 50 455.125 48.56 455.125 47.072C455.125 45.536 455.029 44.096 454.837 42.752H458.725ZM517.377 66.992V61.856H508.497V51.056C511.809 48.992 513.825 45.824 513.825 41.984C513.825 34.736 506.865 30.08 497.313 30.08C487.857 30.08 480.849 34.736 480.849 41.984C480.801 45.824 482.721 48.992 486.177 51.056V61.856H477.345V66.992H517.377ZM497.313 35.072C503.457 35.072 507.585 37.568 507.585 41.984C507.585 46.4 503.457 48.896 497.313 48.896C491.169 48.896 487.089 46.4 487.089 41.984C487.089 37.568 491.169 35.072 497.313 35.072ZM502.209 61.856H492.465V53.408C494.001 53.696 495.633 53.84 497.313 53.84C499.041 53.84 500.673 53.696 502.209 53.408V61.856ZM520.158 68.672H527.166V61.856H520.158V68.672ZM573.003 49.808H579.435V44.576H573.003V27.92H566.667V72.128H573.003V49.808ZM550.251 30.992C543.531 30.992 538.635 37.04 538.635 46.736C538.635 56.48 543.531 62.576 550.251 62.576C556.923 62.576 561.867 56.48 561.867 46.736C561.867 37.04 556.923 30.992 550.251 30.992ZM550.251 56.816C546.939 56.816 544.731 53.312 544.731 46.736C544.731 40.16 546.939 36.704 550.251 36.704C553.515 36.704 555.771 40.16 555.771 46.736C555.771 53.312 553.515 56.816 550.251 56.816ZM614.759 49.808H621.191V44.576H614.759V27.968H608.423V72.128H614.759V49.808ZM602.615 32.096H581.495V61.376H602.615V32.096ZM596.375 56.384H587.735V37.088H596.375V56.384ZM661.94 67.136V61.952H645.044V52.736H657.668V47.648H632.948V36.032H657.332V30.944H626.564V52.736H638.708V61.952H621.908V67.136H661.94ZM670.672 57.92H676.096C674.656 47.024 684.064 50.528 684.064 40.112C684.064 34.352 679.696 31.088 674.032 30.848C669.28 30.608 663.568 33.344 663.04 41.84H669.04C669.28 38 671.152 36.176 673.84 36.176C676.528 36.176 677.68 38.096 677.68 40.592C677.68 46.832 669.088 45.392 670.672 57.92ZM669.856 68.672H676.864V61.856H669.856V68.672Z" fill="white"/>
<path d="M26.1269 36.2459C25.5131 35.5939 25.3233 34.4957 25.3233 33.6126C25.3233 32.1697 23.9692 31 22.299 31C20.6287 31 19.2747 32.1697 19.2747 33.6126C19.2747 34.4957 19.0848 35.5939 18.471 36.2459C17.781 36.9788 17.3675 37.9136 17.3675 38.9319C17.3675 39.4016 17.4554 39.8535 17.6179 40.276C17.9598 41.1651 17.7993 42.3519 17.0741 42.9887C15.7727 44.1314 14.9698 45.6991 14.9698 47.4288C14.9698 48.4161 15.2314 49.3506 15.698 50.1835C16.1355 50.9643 15.9896 52.0218 15.2843 52.5887C13.2638 54.2131 12 56.5306 12 59.103C12 64.0167 16.611 68 22.299 68C27.9869 68 32.5979 64.0167 32.5979 59.103C32.5979 56.5306 31.3341 54.2131 29.3136 52.5887C28.6084 52.0218 28.4625 50.9643 28.8999 50.1835C29.3665 49.3506 29.6281 48.4161 29.6281 47.4288C29.6281 45.6991 28.8252 44.1314 27.5238 42.9887C26.7987 42.3519 26.6381 41.1651 26.98 40.276C27.1425 39.8535 27.2305 39.4016 27.2305 38.9319C27.2305 37.9136 26.8169 36.9788 26.1269 36.2459Z" fill="white"/>
<path d="M21.4148 62.2786L21.7096 60.6712C22.4428 60.6712 23.0815 60.652 23.6257 60.6137C24.17 60.5678 24.6197 60.5028 24.975 60.4186C25.3378 60.3267 25.6061 60.2081 25.78 60.0626C25.9614 59.9172 26.0521 59.7411 26.0521 59.5345C26.0521 59.2589 26.0067 58.9298 25.916 58.5471C25.8253 58.1567 25.7082 57.7625 25.5645 57.3645L27.0498 56.9282C27.1481 57.1884 27.2426 57.4755 27.3333 57.7893C27.424 58.0955 27.4958 58.4055 27.5487 58.7193C27.6092 59.0255 27.6394 59.3125 27.6394 59.5804C27.6394 60.055 27.5374 60.4645 27.3333 60.8089C27.1292 61.1457 26.789 61.4251 26.3128 61.6471C25.8442 61.8614 25.2093 62.0183 24.4081 62.1178C23.6068 62.225 22.6091 62.2786 21.4148 62.2786ZM21.4035 62.2786C20.5871 62.2786 19.8955 62.2135 19.3286 62.0834C18.7693 61.9609 18.312 61.7849 17.9567 61.5552C17.609 61.318 17.3558 61.0424 17.1971 60.7286C17.0384 60.4147 16.959 60.0703 16.959 59.6952C16.959 59.4503 16.9779 59.2053 17.0157 58.9604C17.061 58.7078 17.1139 58.4629 17.1744 58.2256C17.2424 57.9883 17.3029 57.774 17.3558 57.5826L18.7731 57.9156C18.7428 58.0534 18.7088 58.2026 18.671 58.3634C18.6332 58.5241 18.603 58.681 18.5803 58.8341C18.5576 58.9795 18.5463 59.1135 18.5463 59.236C18.5463 59.5192 18.6446 59.7718 18.8411 59.9937C19.0452 60.2081 19.3778 60.3765 19.8388 60.4989C20.2999 60.6137 20.9197 60.6712 21.6983 60.6712L21.925 61.9112L21.4035 62.2786ZM23.2743 57.0315C23.0551 57.0315 22.8661 56.955 22.7074 56.8019C22.5562 56.6411 22.4806 56.4536 22.4806 56.2393C22.4806 56.0173 22.5562 55.8259 22.7074 55.6652C22.8661 55.5045 23.0551 55.4241 23.2743 55.4241C23.4859 55.4241 23.6673 55.5045 23.8185 55.6652C23.9697 55.8259 24.0452 56.0173 24.0452 56.2393C24.0452 56.4536 23.9697 56.6411 23.8185 56.8019C23.6673 56.955 23.4859 57.0315 23.2743 57.0315ZM21.3128 57.02C21.0936 57.02 20.9046 56.9435 20.7459 56.7904C20.5947 56.6296 20.5191 56.4421 20.5191 56.2278C20.5191 56.0058 20.5947 55.8145 20.7459 55.6537C20.9046 55.493 21.0936 55.4126 21.3128 55.4126C21.5244 55.4126 21.7058 55.493 21.857 55.6537C22.0082 55.8145 22.0838 56.0058 22.0838 56.2278C22.0838 56.4421 22.0082 56.6296 21.857 56.7904C21.7058 56.9435 21.5244 57.02 21.3128 57.02Z" fill="white"/>
<path d="M25.7168 36.2459C25.1208 35.5939 24.9365 34.4957 24.9365 33.6126C24.9365 32.1697 23.6218 31 22 31C20.3782 31 19.0635 32.1697 19.0635 33.6126C19.0635 34.4957 18.8792 35.5939 18.2832 36.2459C17.6132 36.9788 17.2116 37.9136 17.2116 38.9319C17.2116 39.4016 17.2971 39.8535 17.4548 40.276C17.7868 41.1651 17.6309 42.3519 16.9268 42.9887C15.6632 44.1314 14.8836 45.6991 14.8836 47.4288C14.8836 48.4161 15.1376 49.3506 15.5907 50.1835C16.0154 50.9643 15.8738 52.0218 15.189 52.5887C13.2271 54.2131 12 56.5306 12 59.103C12 64.0167 16.4772 68 22 68C27.5228 68 32 64.0167 32 59.103C32 56.5306 30.7729 54.2131 28.811 52.5887C28.1262 52.0218 27.9846 50.9643 28.4093 50.1835C28.8624 49.3506 29.1164 48.4161 29.1164 47.4288C29.1164 45.6991 28.3368 44.1314 27.0732 42.9887C26.3691 42.3519 26.2132 41.1651 26.5452 40.276C26.7029 39.8535 26.7884 39.4016 26.7884 38.9319C26.7884 37.9136 26.3868 36.9788 25.7168 36.2459Z" fill="white"/>
<path d="M21.1414 62.2786L21.4277 60.6712C22.1396 60.6712 22.7597 60.652 23.2882 60.6137C23.8166 60.5678 24.2533 60.5028 24.5982 60.4186C24.9505 60.3267 25.2111 60.2081 25.3799 60.0626C25.556 59.9172 25.6441 59.7411 25.6441 59.5345C25.6441 59.2589 25.6 58.9298 25.512 58.5471C25.4239 58.1567 25.3101 57.7625 25.1707 57.3645L26.6128 56.9282C26.7083 57.1884 26.8 57.4755 26.8881 57.7893C26.9761 58.0955 27.0459 58.4055 27.0972 58.7193C27.156 59.0255 27.1853 59.3125 27.1853 59.5804C27.1853 60.055 27.0862 60.4645 26.8881 60.8089C26.6899 61.1457 26.3596 61.4251 25.8973 61.6471C25.4422 61.8614 24.8257 62.0183 24.0478 62.1178C23.2698 62.225 22.301 62.2786 21.1414 62.2786ZM21.1304 62.2786C20.3378 62.2786 19.6662 62.2135 19.1158 62.0834C18.5727 61.9609 18.1287 61.7849 17.7837 61.5552C17.4461 61.318 17.2003 61.0424 17.0461 60.7286C16.892 60.4147 16.8149 60.0703 16.8149 59.6952C16.8149 59.4503 16.8333 59.2053 16.87 58.9604C16.914 58.7078 16.9654 58.4629 17.0241 58.2256C17.0902 57.9883 17.1489 57.774 17.2003 57.5826L18.5764 57.9156C18.547 58.0534 18.514 58.2026 18.4773 58.3634C18.4406 58.5241 18.4112 58.681 18.3892 58.8341C18.3672 58.9795 18.3562 59.1135 18.3562 59.236C18.3562 59.5192 18.4516 59.7718 18.6424 59.9937C18.8406 60.2081 19.1635 60.3765 19.6112 60.4989C20.0589 60.6137 20.6607 60.6712 21.4167 60.6712L21.6368 61.9112L21.1304 62.2786ZM22.9469 57.0315C22.7341 57.0315 22.5506 56.955 22.3964 56.8019C22.2497 56.6411 22.1763 56.4536 22.1763 56.2393C22.1763 56.0173 22.2497 55.8259 22.3964 55.6652C22.5506 55.5045 22.7341 55.4241 22.9469 55.4241C23.1524 55.4241 23.3285 55.5045 23.4753 55.6652C23.6221 55.8259 23.6955 56.0173 23.6955 56.2393C23.6955 56.4536 23.6221 56.6411 23.4753 56.8019C23.3285 56.955 23.1524 57.0315 22.9469 57.0315ZM21.0424 57.02C20.8295 57.02 20.646 56.9435 20.4919 56.7904C20.3451 56.6296 20.2717 56.4421 20.2717 56.2278C20.2717 56.0058 20.3451 55.8145 20.4919 55.6537C20.646 55.493 20.8295 55.4126 21.0424 55.4126C21.2479 55.4126 21.424 55.493 21.5708 55.6537C21.7176 55.8145 21.791 56.0058 21.791 56.2278C21.791 56.4421 21.7176 56.6296 21.5708 56.7904C21.424 56.9435 21.2479 57.02 21.0424 57.02Z" fill="#0046FE"/>
</svg>
