<svg width="38" height="68" viewBox="0 0 38 68" fill="none" xmlns="http://www.w3.org/2000/svg">
<path d="M26.062 9.64102C24.9296 8.44277 24.5794 6.42446 24.5794 4.80153C24.5794 2.14972 22.0814 0 19 0C15.9186 0 13.4206 2.14972 13.4206 4.80153C13.4206 6.42446 13.0704 8.44277 11.938 9.64102C10.6651 10.988 9.90213 12.7061 9.90213 14.5776C9.90213 15.4407 10.0644 16.2713 10.3642 17.0478C10.9949 18.6818 10.6987 20.863 9.36095 22.0332C6.96008 24.1334 5.47886 27.0145 5.47886 30.1934C5.47886 32.0079 5.96149 33.7255 6.8223 35.2561C7.62929 36.6911 7.36016 38.6346 6.05908 39.6766C2.33154 42.662 0 46.9211 0 51.6488C0 60.6793 8.50659 68 19 68C29.4934 68 38 60.6793 38 51.6488C38 46.9211 35.6685 42.662 31.9409 39.6766C30.6398 38.6346 30.3707 36.6911 31.1777 35.2561C32.0385 33.7255 32.5211 32.0079 32.5211 30.1934C32.5211 27.0145 31.0399 24.1334 28.639 22.0332C27.3013 20.863 27.005 18.6818 27.6358 17.0478C27.9356 16.2713 28.0979 15.4407 28.0979 14.5776C28.0979 12.7061 27.3349 10.988 26.062 9.64102Z" fill="white"/>
<path d="M11.0371 52.4844L12.2129 50.0645L13.3887 52.4844H15.0703L12.9648 48.123H11.4609L9.35547 52.4844H11.0371Z" fill="#001B63"/>
<path d="M18.7727 58.2949C21.0285 58.2949 22.4777 57.2148 22.4777 55.4512C22.4777 54.2207 21.8078 53.3457 20.6184 53.0176C21.6301 52.6484 22.218 51.8281 22.218 50.6797C22.218 49.0664 20.9055 48 18.8684 48C17.5559 48 16.216 48.4102 15.4094 49.1348L16.0383 50.625C16.9543 49.9824 17.8977 49.6133 18.7316 49.6133C19.716 49.6133 20.2492 50.1055 20.2492 50.9395C20.2492 51.8418 19.6613 52.293 18.4445 52.293H17.2824V53.8926H18.677C19.9484 53.8926 20.4953 54.3164 20.4953 55.2598C20.4953 56.2305 19.9348 56.668 18.6906 56.668C17.7609 56.668 16.8039 56.3262 15.9016 55.6699L15.259 57.1602C16.052 57.8984 17.4055 58.2949 18.7727 58.2949Z" fill="#001B63"/>
<path d="M24.6352 52.4844L25.8109 50.0645L26.9867 52.4844H28.6684L26.5629 48.123H25.059L22.9535 52.4844H24.6352Z" fill="#001B63"/>
</svg>
