<svg width="54" height="97" viewBox="0 0 54 97" fill="none" xmlns="http://www.w3.org/2000/svg">
<path d="M37.0354 13.7526C35.4263 12.0434 34.9286 9.1643 34.9286 6.84924C34.9286 3.06651 31.3788 0 27 0C22.6212 0 19.0714 3.06651 19.0714 6.84924C19.0714 9.1643 18.5737 12.0434 16.9646 13.7526C15.1557 15.674 14.0714 18.1249 14.0714 20.7945C14.0714 22.0258 14.3021 23.2105 14.7281 24.3182C15.6244 26.649 15.2035 29.7605 13.3024 31.4297C9.89063 34.4255 7.78575 38.5354 7.78575 43.07C7.78575 45.6584 8.47159 48.1084 9.69485 50.2919C10.8416 52.3388 10.4592 55.1111 8.61027 56.5975C3.31324 60.8561 0 66.9315 0 73.6756C0 86.5573 12.0883 97 27 97C41.9117 97 54 86.5573 54 73.6756C54 66.9315 50.6868 60.856 45.3897 56.5975C43.5408 55.1111 43.1584 52.3388 44.3051 50.2919C45.5284 48.1084 46.2142 45.6584 46.2142 43.07C46.2142 38.5354 44.1094 34.4255 40.6976 31.4297C38.7965 29.7604 38.3756 26.649 39.2719 24.3182C39.6979 23.2105 39.9285 22.0258 39.9285 20.7945C39.9285 18.1249 38.8443 15.674 37.0354 13.7526Z" fill="white"/>
<path d="M24.6815 82L25.4544 77.786C27.3765 77.786 29.051 77.7358 30.4777 77.6355C31.9045 77.515 33.0835 77.3445 34.0149 77.1237C34.966 76.8829 35.6695 76.5719 36.1253 76.1906C36.6009 75.8094 36.8386 75.3478 36.8386 74.806C36.8386 74.0836 36.7197 73.2207 36.482 72.2174C36.2442 71.194 35.937 70.1605 35.5605 69.1171L39.4544 67.9732C39.712 68.6555 39.9597 69.408 40.1975 70.2308C40.4352 71.0334 40.6235 71.8462 40.7622 72.6689C40.9207 73.4716 41 74.2241 41 74.9264C41 76.1706 40.7325 77.2441 40.1975 78.1472C39.6624 79.0301 38.7707 79.7625 37.5223 80.3445C36.2937 80.9064 34.6292 81.3177 32.5287 81.5786C30.4282 81.8595 27.8125 82 24.6815 82ZM24.6518 82C22.5117 82 20.6985 81.8294 19.2123 81.4883C17.7459 81.1672 16.5471 80.7057 15.6157 80.1037C14.7042 79.4816 14.0403 78.7592 13.6242 77.9365C13.2081 77.1137 13 76.2107 13 75.2274C13 74.5853 13.0495 73.9431 13.1486 73.301C13.2675 72.6388 13.4062 71.9967 13.5648 71.3746C13.7431 70.7525 13.9016 70.1906 14.0403 69.689L17.7558 70.5619C17.6766 70.9231 17.5874 71.3144 17.4883 71.7358C17.3892 72.1572 17.31 72.5686 17.2505 72.9699C17.1911 73.3512 17.1614 73.7023 17.1614 74.0234C17.1614 74.7659 17.419 75.4281 17.9342 76.01C18.4692 76.5719 19.3411 77.0134 20.5499 77.3344C21.7587 77.6355 23.3836 77.786 25.4246 77.786L26.0191 81.0368L24.6518 82ZM29.5563 68.2441C28.9816 68.2441 28.4862 68.0435 28.0701 67.6421C27.6737 67.2207 27.4756 66.7291 27.4756 66.1672C27.4756 65.5853 27.6737 65.0836 28.0701 64.6622C28.4862 64.2408 28.9816 64.0301 29.5563 64.0301C30.1111 64.0301 30.5867 64.2408 30.983 64.6622C31.3793 65.0836 31.5775 65.5853 31.5775 66.1672C31.5775 66.7291 31.3793 67.2207 30.983 67.6421C30.5867 68.0435 30.1111 68.2441 29.5563 68.2441ZM24.414 68.214C23.8393 68.214 23.3439 68.0134 22.9278 67.612C22.5315 67.1906 22.3333 66.699 22.3333 66.1371C22.3333 65.5552 22.5315 65.0535 22.9278 64.6321C23.3439 64.2107 23.8393 64 24.414 64C24.9689 64 25.4444 64.2107 25.8408 64.6321C26.2371 65.0535 26.4352 65.5552 26.4352 66.1371C26.4352 66.699 26.2371 67.1906 25.8408 67.612C25.4444 68.0134 24.9689 68.214 24.414 68.214Z" fill="#0046FE"/>
</svg>
